<?xml version="1.0" encoding="UTF-8"?>
<svg id="a" data-name="Слой 1" xmlns="http://www.w3.org/2000/svg" viewBox="0 0 96.06 37.18">
  <path d="M34.8,36.34L18.95,2.89,3.07,36.34H0L16.43,1.67c.49-1.03,1.45-1.67,2.5-1.67s2.01.64,2.5,1.67l16.43,34.67h-3.07Z" style="fill: #00a92c;"/>
  <path d="M29.13,32.98l-10.19-21.5-10.2,21.5h-1.97l10.56-22.28c.31-.66.93-1.07,1.61-1.07s1.29.41,1.61,1.07l10.56,22.28h-1.97Z" style="fill: #008a16;"/>
  <path d="M25.35,30.88l-6.41-13.52-6.42,13.52h-1.24l6.64-14.01c.2-.42.58-.68,1.01-.68s.81.26,1.01.68l6.64,14.01h-1.24Z" style="fill: #006b03;"/>
  <path d="M22.35,29.12l-3.41-7.19-3.41,7.19h-.66l3.53-7.46c.11-.22.31-.36.54-.36s.43.14.54.36l3.53,7.46h-.66Z" style="fill: #003e00;"/>
  <g>
    <path d="M57.04,16.28v13.34c0,2.35-.71,4.2-2.13,5.54s-3.39,2.02-5.91,2.02-4.42-.68-5.8-2.04-2.06-3.22-2.06-5.58v-13.28h2.61v13.37c0,1.68.45,2.98,1.35,3.91s2.25,1.38,4.05,1.38c1.7,0,3.01-.46,3.93-1.37s1.37-2.23,1.37-3.95v-13.34h2.58Z" style="fill: #00a92c;"/>
    <path d="M65.06,28.38v8.52h-2.59v-20.62h5.68c2.56,0,4.45.49,5.68,1.46s1.84,2.44,1.84,4.39c0,2.74-1.38,4.58-4.13,5.53l5.65,9.24h-3.03l-4.99-8.52h-4.1ZM65.06,26.18h3.09c1.67,0,2.9-.33,3.67-.99s1.16-1.64,1.16-2.93-.39-2.24-1.17-2.84-2.04-.9-3.79-.9h-2.95v7.66Z" style="fill: #00a92c;"/>
    <path d="M93.36,36.9l-2.48-6.39h-8.18l-2.45,6.39h-2.62l8.05-20.7h2.34l8.04,20.7h-2.69ZM90.11,28.21l-2.31-6.25-.99-3.09c-.28,1.13-.58,2.16-.89,3.09l-2.34,6.25h6.53Z" style="fill: #00a92c;"/>
  </g>
</svg>