<?xml version="1.0" encoding="UTF-8"?>
<svg id="a" data-name="Слой 1" xmlns="http://www.w3.org/2000/svg" viewBox="0 0 98.42 48">
  <rect width="98.42" height="48" style="fill: #001c00;"/>
  <path d="M39.67,36.79l-11.43-24.11-11.44,24.11h-2.21l11.85-24.99c.35-.74,1.04-1.2,1.8-1.2s1.45.46,1.8,1.2l11.85,24.99h-2.21Z" style="fill: #00a92c;"/>
  <path d="M35.59,34.37l-7.35-15.5-7.36,15.5h-1.42l7.61-16.06c.23-.48.67-.77,1.16-.77s.93.3,1.16.77l7.61,16.06h-1.42Z" style="fill: #008a16;"/>
  <path d="M32.86,32.86l-4.62-9.74-4.62,9.74h-.89l4.79-10.1c.14-.3.42-.49.73-.49s.59.19.73.49l4.79,10.1h-.89Z" style="fill: #006b03;"/>
  <path d="M30.7,31.59l-2.46-5.18-2.46,5.18h-.48l2.55-5.37c.08-.16.22-.26.39-.26s.31.1.39.26l2.55,5.37h-.48Z" style="fill: #003e00;"/>
  <g>
    <path d="M55.7,22.34v9.62c0,1.69-.51,3.03-1.53,3.99s-2.44,1.45-4.26,1.45-3.19-.49-4.18-1.47-1.48-2.32-1.48-4.02v-9.58h1.88v9.64c0,1.21.32,2.15.97,2.82s1.62,1,2.92,1c1.23,0,2.17-.33,2.83-.99s.99-1.61.99-2.85v-9.62h1.86Z" style="fill: #00a92c;"/>
    <path d="M61.49,31.06v6.14h-1.87v-14.86h4.1c1.84,0,3.21.35,4.09,1.05s1.33,1.76,1.33,3.17c0,1.97-.99,3.3-2.98,3.98l4.08,6.66h-2.19l-3.6-6.14h-2.96ZM61.49,29.47h2.23c1.21,0,2.09-.24,2.64-.71s.83-1.18.83-2.11-.28-1.62-.84-2.05-1.47-.65-2.73-.65h-2.12v5.52Z" style="fill: #00a92c;"/>
    <path d="M81.89,37.2l-1.79-4.6h-5.9l-1.77,4.6h-1.89l5.8-14.92h1.69l5.79,14.92h-1.94ZM79.54,30.94l-1.67-4.5-.71-2.23c-.2.81-.42,1.56-.64,2.23l-1.69,4.5h4.71Z" style="fill: #00a92c;"/>
  </g>
</svg>