<?xml version="1.0" encoding="UTF-8"?>
<svg id="a" data-name="Слой 1" xmlns="http://www.w3.org/2000/svg" viewBox="0 0 48 48">
  <rect width="48" height="48" style="fill: #001c00;"/>
  <path d="M35.44,37.1l-11.43-24.11-11.44,24.11h-2.21l11.85-24.99c.35-.74,1.04-1.2,1.8-1.2s1.45.46,1.8,1.2l11.85,24.99h-2.21Z" style="fill: #00a92c;"/>
  <path d="M31.35,34.68l-7.35-15.5-7.36,15.5h-1.42l7.61-16.06c.23-.48.67-.77,1.16-.77s.93.3,1.16.77l7.61,16.06h-1.42Z" style="fill: #008a16;"/>
  <path d="M28.62,33.16l-4.62-9.74-4.62,9.74h-.89l4.79-10.1c.14-.3.42-.49.73-.49s.59.19.73.49l4.79,10.1h-.89Z" style="fill: #006b03;"/>
  <path d="M26.46,31.89l-2.46-5.18-2.46,5.18h-.48l2.55-5.37c.08-.16.22-.26.39-.26s.31.1.39.26l2.55,5.37h-.48Z" style="fill: #003e00;"/>
</svg>